<svg width="100" height="91" viewBox="0 0 100 91" fill="none" xmlns="http://www.w3.org/2000/svg">
<path d="M0 36.1276C1.06315 36.1276 2.12631 36.0855 3.17894 36.1276C8.38947 36.3486 13.6 36.5907 18.821 36.8434C24.4421 37.1065 30.0631 37.2855 35.6842 37.5592C37.8736 37.6644 39.8526 37.0434 41.8631 36.4118C43.5052 35.896 45.1473 35.4013 46.8105 34.9486C48.9052 34.3802 50.9684 34.4223 53.0631 35.0013C54.9158 35.5065 56.7579 36.0223 58.5579 36.6644C60.6526 37.4118 62.7684 37.6223 64.9894 37.517C72.3473 37.1592 79.7052 36.896 87.0736 36.5802C91.1157 36.4013 95.1579 36.1907 99.2 36.0013C99.3473 36.0013 99.5578 35.9065 99.6421 36.0434C99.7579 36.2328 99.5263 36.3486 99.4315 36.4855C98.7473 37.4644 97.7789 37.9486 96.6105 38.096C92.5894 38.6013 88.5578 38.9065 84.5263 39.2855C79.0105 39.8013 73.4842 40.1907 67.9894 40.8644C67.2736 40.9486 66.5579 41.117 65.8421 41.2434C63.9368 41.5907 62.6315 42.7065 61.7158 44.3802C60.6947 46.2539 59.5789 48.0644 58.1579 49.6644C55.9158 52.1907 53.2 54.0434 50.2105 55.5486C49.8947 55.7065 49.6526 55.6223 49.3684 55.4855C44.5263 53.1381 40.7473 49.6644 38.2315 44.8749C38.1052 44.6434 37.9684 44.4118 37.8421 44.1802C36.9158 42.4644 35.4526 41.5381 33.5579 41.1802C30.9684 40.6855 28.3473 40.496 25.7368 40.2434C22.3473 39.917 18.9473 39.6434 15.5579 39.3381C11.9473 39.0118 8.34736 38.6644 4.74736 38.317C4.12631 38.2539 3.51578 38.1802 2.89473 38.0855C1.6 37.896 0.631579 37.2118 0.0105263 36.1381L0 36.1276ZM49.7052 36.2434C49.4842 36.2749 49.2 36.296 48.9158 36.3486C46.9579 36.717 45.0526 37.2749 43.1684 37.9065C42.0737 38.2749 40.9579 38.5907 39.9894 39.2434C39.3052 39.696 39.1158 40.2013 39.3052 40.9802C39.7263 42.7486 40.421 44.4223 41.3263 45.9907C43.2842 49.4223 46.221 51.8328 49.5789 53.7802C49.8315 53.9276 50.0105 53.8118 50.2105 53.696C51.4105 53.0118 52.5473 52.2223 53.6421 51.3697C57.0105 48.7171 59.1789 45.296 60.3158 41.1802C60.5894 40.2013 60.3684 39.6539 59.5052 39.117C59.2526 38.9592 58.9789 38.8328 58.6947 38.717C56.8105 37.9276 54.8526 37.3381 52.8842 36.8223C51.8526 36.5486 50.8315 36.2644 49.6947 36.2328L49.7052 36.2434Z" fill="#18181B"/>
<path d="M3.12622 39.3591C4.14727 39.4433 5.16833 39.5276 6.18938 39.6223C9.88412 39.9697 13.5789 40.296 17.2631 40.6854C21.9368 41.1802 26.6315 41.4749 31.2946 42.1591C31.9052 42.2539 32.5157 42.3907 33.1262 42.496C34.5368 42.7486 35.5052 43.6433 36.3052 44.7381C37.1578 45.917 37.9578 47.1276 38.7999 48.317C39.8736 49.8223 41.0947 51.2012 42.5473 52.3697C42.6104 52.4223 42.6631 52.4854 42.842 52.6433C39.3683 52.1381 36.1368 51.3065 32.9262 50.2223C33.7262 50.1591 34.5262 50.096 35.3262 50.0328C35.8736 49.9907 36.421 49.9591 36.9683 49.917C37.0525 49.917 37.1683 49.896 37.1999 49.8433C37.2841 49.7276 37.1683 49.6433 37.1052 49.5802C36.5999 49.0223 35.9473 48.8539 35.2315 48.896C33.5157 48.9907 31.7894 49.0223 30.0736 49.0118C27.5262 49.0012 25.0946 48.3381 22.6525 47.717C21.0104 47.296 19.3789 46.8118 17.7683 46.1802C18.3473 46.1802 18.9368 46.1802 19.5157 46.1802C23.4315 46.2644 27.3578 46.3486 31.2736 46.4223C31.4525 46.4223 31.7262 46.5486 31.7894 46.3276C31.8525 46.117 31.5999 45.9697 31.4315 45.8433C30.9578 45.496 30.3999 45.3802 29.821 45.3591C25.5473 45.2012 21.2736 45.0012 17.0104 44.6854C14.5157 44.496 12.021 44.3276 9.58938 43.6433C6.98938 42.9065 4.9578 41.3276 3.13675 39.3591H3.12622Z" fill="#18181B"/>
<path d="M81.8946 46.1486C80.5788 46.7381 79.1999 47.1381 77.8209 47.517C75.8736 48.0434 73.9157 48.5907 71.9051 48.8434C69.463 49.1592 67.0104 49.0223 64.5683 48.896C63.8736 48.8644 63.2209 48.9697 62.6946 49.4749C62.5893 49.5697 62.442 49.6749 62.4841 49.8223C62.5367 50.0013 62.7262 49.917 62.8525 49.9276C63.9472 50.0118 65.0525 50.0855 66.1472 50.1697C66.3472 50.1907 66.5683 50.1486 66.842 50.3381C63.5683 51.317 60.3367 52.1381 57.042 52.6328C56.9683 52.5276 57.0314 52.4749 57.0736 52.4328C59.1578 50.8013 60.6946 48.696 62.1472 46.517C62.5999 45.8434 63.0841 45.1802 63.5578 44.517C64.4525 43.2644 65.6841 42.6013 67.1999 42.3381C70.5051 41.7592 73.8525 41.5065 77.1893 41.1802C80.242 40.8749 83.2946 40.5697 86.3578 40.2749C88.8315 40.0328 91.3051 39.8118 93.7788 39.5907C94.5367 39.517 95.2946 39.4539 96.063 39.3907C96.2315 39.3802 96.4104 39.3065 96.642 39.4539C96.3683 39.717 96.0946 39.9592 95.842 40.2118C93.1578 42.896 89.8209 44.0328 86.1262 44.3802C80.7472 44.8855 75.3683 45.1381 69.9683 45.3486C69.5051 45.3697 69.0525 45.4434 68.6209 45.6434C68.2946 45.7907 67.9999 45.9802 67.842 46.4328C72.5683 46.3381 77.2314 46.2434 81.9051 46.1381L81.8946 46.1486Z" fill="#18181B"/>
<path d="M48.8632 42.696C48.8632 42.1381 48.8632 41.7275 48.8632 41.3275C48.8632 41.1486 48.8948 41.0117 49.1158 41.0117C49.3369 41.0117 49.3685 41.1591 49.3685 41.3381C49.3685 41.9907 49.3685 42.6433 49.3685 43.3065C49.3685 43.4538 49.4211 43.6538 49.2211 43.717C49.0211 43.7802 48.8421 43.717 48.7053 43.5486C48.3685 43.117 48.0211 42.696 47.6421 42.2223C47.4632 42.6117 47.579 42.9802 47.5474 43.3275C47.5369 43.5275 47.5685 43.7486 47.2737 43.7275C47 43.717 47.0632 43.496 47.0527 43.3275C46.979 42.6117 47.2211 41.8854 46.9053 41.1907C46.8632 41.096 46.9579 41.0328 47.0527 41.0223C47.2632 41.0012 47.4737 40.9802 47.6316 41.1802C47.8948 41.517 48.1579 41.8538 48.4211 42.1802C48.5264 42.317 48.6421 42.4433 48.8632 42.7065V42.696Z" fill="#18181B"/>
<path d="M44.0209 43.0118C44.1788 43.5381 43.7788 43.6749 43.3157 43.7486C42.0735 43.9381 41.2735 43.0854 41.5893 41.917C41.8104 41.0854 43.0209 40.6433 43.7893 41.096C43.9472 41.1907 43.9683 41.3065 43.9157 41.4539C43.8314 41.6749 43.6946 41.5591 43.5788 41.5065C43.1788 41.3276 42.7788 41.2855 42.4525 41.6433C42.1472 41.9697 42.1367 42.3802 42.263 42.7907C42.3262 43.0012 42.463 43.1591 42.6735 43.2644C42.9051 43.3802 43.1999 43.4644 43.3578 43.2433C43.4946 43.0433 43.5367 42.7381 43.2525 42.5486C43.1788 42.496 43.0946 42.4328 43.1578 42.3381C43.1893 42.296 43.2736 42.2854 43.3472 42.2749C43.9578 42.1697 44.042 42.2539 44.0314 43.0328L44.0209 43.0118Z" fill="#18181B"/>
<path d="M44.621 42.4012C44.5473 42.0539 44.7368 41.6223 44.4947 41.2117C44.3999 41.0539 44.5684 41.0012 44.7052 41.0012C45.1789 41.0012 45.6631 41.0012 46.1368 41.0012C46.3052 41.0012 46.421 41.0539 46.442 41.2328C46.4631 41.4749 46.2736 41.4117 46.1473 41.4117C45.9684 41.4223 45.7894 41.4328 45.621 41.4117C45.3368 41.3907 45.2526 41.517 45.2526 41.7907C45.2526 42.0539 45.3789 42.1065 45.6105 42.1275C45.8526 42.1486 46.2841 41.9696 46.2841 42.2854C46.2841 42.696 45.842 42.4749 45.5999 42.4854C45.2526 42.5065 45.2631 42.696 45.2526 42.9486C45.242 43.2328 45.3578 43.3275 45.6315 43.317C45.842 43.3065 46.0526 43.317 46.2736 43.317C46.4105 43.317 46.5157 43.3696 46.5052 43.5381C46.5052 43.6749 46.4105 43.7275 46.2947 43.7275C45.821 43.7275 45.3368 43.7275 44.8631 43.7275C44.642 43.7275 44.642 43.5381 44.642 43.3802C44.642 43.0749 44.642 42.7802 44.642 42.4117L44.621 42.4012Z" fill="#18181B"/>
<path d="M53.1053 43.7802C52.8948 43.7591 52.7264 43.7381 52.5474 43.7065C52.3685 43.6855 52.2527 43.6013 52.2843 43.3907C52.3264 43.1381 52.4843 43.2118 52.6422 43.2434C52.8106 43.2855 52.9895 43.317 53.1685 43.3276C53.3264 43.3276 53.4948 43.3065 53.5474 43.117C53.5895 42.9276 53.4632 42.8118 53.3264 42.7381C53.0948 42.6012 52.8527 42.5065 52.6316 42.3591C52.3579 42.1802 52.2211 41.917 52.2843 41.5907C52.3474 41.2749 52.579 41.117 52.8632 41.0328C53.2106 40.9276 53.5685 40.9591 53.9158 41.0328C54.0527 41.0644 54.1895 41.1276 54.1369 41.3276C54.0843 41.517 53.9685 41.5065 53.8106 41.4644C53.5158 41.3802 53.1053 41.1802 52.9579 41.5486C52.8106 41.917 53.3158 41.9381 53.5369 42.117C53.6316 42.1907 53.7474 42.2434 53.8527 42.3065C54.1369 42.5065 54.2948 42.7697 54.2316 43.117C54.1685 43.4539 53.9158 43.6223 53.6106 43.7065C53.4422 43.7591 53.2632 43.7591 53.1158 43.7802H53.1053Z" fill="#18181B"/>
<path d="M50.0314 42.4117C49.9578 42.0749 50.1472 41.6433 49.9157 41.2328C49.7999 41.0433 49.9788 41.0012 50.1367 41.0012C50.6104 41.0012 51.0946 41.0012 51.5683 41.0012C51.7367 41.0012 51.8525 41.0749 51.8525 41.2433C51.8525 41.4644 51.663 41.4012 51.5367 41.4117C51.3788 41.4223 51.2209 41.4223 51.063 41.4117C50.7893 41.3907 50.6841 41.496 50.6841 41.7802C50.6841 42.0328 50.7788 42.1065 51.0314 42.1275C51.263 42.1486 51.7051 41.9591 51.7051 42.296C51.7051 42.7065 51.2525 42.4749 51.0209 42.496C50.7051 42.5275 50.6946 42.6854 50.6946 42.917C50.6946 43.1591 50.7262 43.3381 51.0314 43.317C51.263 43.3065 51.4946 43.317 51.7262 43.317C51.8525 43.317 51.9262 43.3907 51.9262 43.517C51.9262 43.6433 51.842 43.717 51.7262 43.717C51.2525 43.717 50.7683 43.717 50.2946 43.717C50.0736 43.717 50.0525 43.5591 50.0525 43.3802C50.0525 43.0749 50.0525 42.7802 50.0525 42.4012L50.0314 42.4117Z" fill="#18181B"/>
<path d="M56.8527 43.7801C56.6632 43.7486 56.4737 43.7275 56.2843 43.6959C56.1158 43.6644 56.0632 43.5486 56.0843 43.3801C56.1158 43.1696 56.2422 43.1801 56.3895 43.2328C56.6106 43.3065 56.8316 43.3486 57.0632 43.317C57.1895 43.2959 57.3053 43.2328 57.3369 43.1065C57.379 42.9696 57.2948 42.8538 57.1895 42.8012C56.9579 42.6643 56.7158 42.5696 56.4843 42.4328C56.179 42.2538 55.9474 42.0012 56.0211 41.6117C56.0948 41.2012 56.4106 41.0538 56.7895 40.9907C57.0843 40.938 57.3895 40.9591 57.6843 41.0328C57.8316 41.0749 57.9369 41.1591 57.9053 41.338C57.8632 41.5486 57.7264 41.4959 57.579 41.4643C57.2843 41.4012 56.8737 41.1801 56.7369 41.5591C56.6 41.9275 57.0948 41.9486 57.3158 42.1275C57.4 42.1907 57.4948 42.2328 57.5895 42.2854C57.9053 42.4749 58.0737 42.7591 58.0106 43.1275C57.9474 43.4854 57.6632 43.6433 57.3474 43.738C57.2001 43.7801 57.0316 43.7801 56.8737 43.7907L56.8527 43.7801Z" fill="#18181B"/>
<path d="M55.442 42.3907C55.442 42.6328 55.4631 42.8854 55.442 43.1275C55.421 43.3486 55.6104 43.7065 55.1473 43.717C54.6841 43.7275 54.8315 43.3801 54.8315 43.1591C54.8104 42.7065 54.8315 42.2433 54.8315 41.7801C54.8315 41.6538 54.821 41.538 54.8104 41.4117C54.7999 41.2854 54.5473 41.2117 54.7157 41.0644C54.8736 40.9275 55.0946 40.9907 55.2736 41.0117C55.4946 41.0328 55.4525 41.2328 55.4631 41.3907C55.4631 41.7275 55.4631 42.0644 55.4631 42.3907H55.442Z" fill="#18181B"/>
</svg>
